<?xml version="1.0" encoding="UTF-8" standalone="no"?>
<svg
   xmlns:dc="http://purl.org/dc/elements/1.1/"
   xmlns:cc="http://creativecommons.org/ns#"
   xmlns:rdf="http://www.w3.org/1999/02/22-rdf-syntax-ns#"
   xmlns:svg="http://www.w3.org/2000/svg"
   xmlns="http://www.w3.org/2000/svg"
   xmlns:sodipodi="http://sodipodi.sourceforge.net/DTD/sodipodi-0.dtd"
   xmlns:inkscape="http://www.inkscape.org/namespaces/inkscape"
   id="svg"
   version="1.1"
   width="400"
   height="400"
   style="display: block;"
   inkscape:version="0.91 r13725"
   sodipodi:docname="eo4-white.svg">
  <metadata
     id="metadata9">
    <rdf:RDF>
      <cc:Work
         rdf:about="">
        <dc:format>image/svg+xml</dc:format>
        <dc:type
           rdf:resource="http://purl.org/dc/dcmitype/StillImage" />
        <dc:title></dc:title>
      </cc:Work>
    </rdf:RDF>
  </metadata>
  <defs
     id="defs7" />
  <sodipodi:namedview
     pagecolor="#ffffff"
     bordercolor="#666666"
     borderopacity="1"
     objecttolerance="10"
     gridtolerance="10"
     guidetolerance="10"
     inkscape:pageopacity="0"
     inkscape:pageshadow="2"
     inkscape:window-width="1847"
     inkscape:window-height="1053"
     id="namedview5"
     showgrid="false"
     inkscape:zoom="0.59"
     inkscape:cx="1.6949153"
     inkscape:cy="200"
     inkscape:window-x="73"
     inkscape:window-y="27"
     inkscape:window-maximized="1"
     inkscape:current-layer="svg" />
  <path
     inkscape:connector-curvature="0"
     id="path0"
     d="m 115.909,96.405 c -13.85502,2.490246 -28.020861,4.45579 -40.56225,11.373 -18.381648,8.71829 -31.650653,24.51679 -43.10925,40.81787 -5.803834,12.44663 -10.726037,25.9548 -11.755728,40.02539 C 19.612166,201.86123 19.3941,215.66606 24,228.173 c 5.100016,20.81032 18.94993,38.54357 35.004,52.327 9.312939,7.43099 19.209294,11.63543 30.018743,16.66686 27.704597,8.98879 58.790237,3.86965 84.543947,-8.79858 C 189.56177,279.53926 202.55945,265.63746 212,250.324 217.64913,238.27744 223.51713,226.41347 224.12404,212.95402 224.38941,197.7918 225.82943,181.53581 220,167.401 216.73981,155.2899 210.90574,144.32156 202.86,135 186.86652,114.90178 163.24509,101.03831 137.70571,97.897986 130.51838,96.881274 123.17414,95.702597 115.909,96.405 Z m 13.327,4.559 c 18.07976,2.70718 36.48344,7.34088 50.68456,19.54875 16.7001,12.53195 30.55945,29.79584 36.07944,49.92425 5.94155,14.00319 4.53118,30.29819 3.4715,45.347 -2.65211,12.59866 -7.55357,24.46184 -14.2835,35.57038 -7.6896,8.74248 -16.05222,26.03121 -29.79955,21.27254 -15.72539,-11.36137 6.02697,-23.14887 13.01264,-32.39951 10.27578,-8.41501 20.81302,-23.59135 10.02616,-35.88463 -10.34728,-9.09111 -24.31612,-1.72925 -32.04536,7.61937 -13.96582,12.55516 -25.93328,27.40891 -41.07339,38.5911 -14.63112,4.51139 -18.02339,-16.42769 -5.83545,-22.66135 18.02406,-20.09823 39.14894,-37.42962 55.89366,-58.61356 9.11431,-15.8277 -11.8873,-34.26039 -25.61076,-21.17582 -27.62648,25.03823 -52.385295,53.22502 -80.532497,77.65031 C 59.527324,228.7593 51.500842,214.63988 57.425167,207.74096 75.694108,188.87484 95.411434,171.28251 112.34063,151.21441 120.41172,136.117 102.65061,120.68489 88.302625,128.82362 75.816101,134.10049 66.726275,159.67537 51.645,148.859 39.043289,135.33499 62.008603,123.3541 71.5,116.045 c 11.986396,-7.77679 26.173234,-12.62296 40.472,-14.097 5.88357,-0.81706 11.31837,-3.10568 17.264,-0.984 z m 197.78,1.569 c -13.3138,4.19876 -19.08938,17.86124 -19.86036,31.1518 -2.34326,24.43428 -2.91884,49.84481 4.20571,73.56444 9.73896,21.56642 44.62299,22.21896 57.88865,3.86176 8.77989,-20.0217 7.85161,-42.76114 7.20199,-64.20605 -1.66857,-15.08387 -1.24487,-34.88086 -17.05242,-42.55398 -9.91295,-4.938924 -21.99574,-5.774892 -32.38357,-1.81797 z m -76.774,59.717 c 0.086,19.75 0.172,39.5 0.258,59.25 16.50001,0.17781 33.00001,0.35615 49.5,0.535 0,-6.01167 0,-12.02333 0,-18.035 -8.33333,0 -16.66667,0 -25,0 0,-11.66667 0,-23.33333 0,-35 5.66667,0 11.33333,0 17,0 0,-6 0,-12 0,-18 -5.66667,0 -11.33333,0 -17,0 0,-10.33333 0,-20.66667 0,-31 8.33333,0 16.66667,0 25,0 0,-5.66667 0,-11.33333 0,-17 -16.672,0 -33.344,0 -50.016,0 0.086,19.75 0.172,39.5 0.258,59.25 z M 26.75,109.392 c -7.104951,17.07896 17.362332,-1.64406 0,0 z m 172.443,0.671 c -4.2343,10.53808 13.68679,4.18294 2.84416,-1.91362 -1.24826,-0.0664 -2.24658,0.94075 -2.84416,1.91362 z m 148.625,12.687 c 6.72711,12.96586 3.08511,28.50635 4.17545,42.58113 -1.6542,12.59154 4.60463,31.72514 -8.93122,38.76908 -8.11453,1.27549 -13.32917,-6.79949 -11.65936,-13.98183 0.12865,-20.99141 -1.85217,-42.17938 1.24032,-62.99425 1.09226,-6.81653 10.81561,-10.22747 15.17481,-4.37413 z M 18.425,140.443 c 2.285049,15.94343 14.974616,-9.1133 0,0 z m 202.242,1.224 c -4.94902,12.70967 16.37208,3.24613 2.01828,-0.72509 l -1.10262,0.15705 -0.91566,0.56804 z m 90.398,109.755 c -4.90974,12.47647 -12.93631,25.03838 -12.67247,38.77533 2.30396,3.08051 9.7007,0.85089 13.98603,1.86547 2.50352,2.28355 -1.9267,11.39742 2.27994,11.9372 5.09494,0.0462 11.68428,1.58678 9.3415,-5.80475 0.58346,-6.05723 9.87461,-14.77896 0,-17.0245 0,-10.39025 0,-20.7805 0,-31.17075 -4.29798,0.27363 -9.02671,-0.83961 -12.935,1.422 z M 313,276 c 0.11281,9.99067 -8.40306,5.69716 -1.59337,-1.356 0.80733,-6.90574 1.87594,-3.11788 1.59337,1.356 z m -110.345,10.829 c -5.35769,12.41284 15.90406,0.84703 1.47878,-1.31631 L 202.655,286.829 Z m -177.048,3.753 c -1.738393,16.66001 17.149249,-6.08423 0,0 z"
     style="fill:#ffffff;fill-rule:evenodd;stroke:none;stroke-opacity:1;fill-opacity:1" />
</svg>
