<?xml version="1.0" encoding="UTF-8" standalone="no"?>
<svg
   xmlns:dc="http://purl.org/dc/elements/1.1/"
   xmlns:cc="http://creativecommons.org/ns#"
   xmlns:rdf="http://www.w3.org/1999/02/22-rdf-syntax-ns#"
   xmlns:svg="http://www.w3.org/2000/svg"
   xmlns="http://www.w3.org/2000/svg"
   xmlns:sodipodi="http://sodipodi.sourceforge.net/DTD/sodipodi-0.dtd"
   xmlns:inkscape="http://www.inkscape.org/namespaces/inkscape"
   id="svg"
   version="1.1"
   width="400"
   height="400"
   style="display:block"
   inkscape:version="0.91 r13725"
   sodipodi:docname="eo4-black.svg">
  <metadata
     id="metadata4184">
    <rdf:RDF>
      <cc:Work
         rdf:about="">
        <dc:format>image/svg+xml</dc:format>
        <dc:type
           rdf:resource="http://purl.org/dc/dcmitype/StillImage" />
        <dc:title></dc:title>
      </cc:Work>
    </rdf:RDF>
  </metadata>
  <defs
     id="defs4182" />
  <sodipodi:namedview
     pagecolor="#ffffff"
     bordercolor="#666666"
     borderopacity="1"
     objecttolerance="10"
     gridtolerance="10"
     guidetolerance="10"
     inkscape:pageopacity="0"
     inkscape:pageshadow="2"
     inkscape:window-width="1847"
     inkscape:window-height="1053"
     id="namedview4180"
     showgrid="false"
     fit-margin-top="20"
     fit-margin-left="10"
     fit-margin-right="10"
     fit-margin-bottom="20"
     inkscape:zoom="0.59"
     inkscape:cx="-6.4652262"
     inkscape:cy="123.99999"
     inkscape:window-x="73"
     inkscape:window-y="27"
     inkscape:window-maximized="1"
     inkscape:current-layer="svg" />
  <g
     id="svgg"
     transform="matrix(1.1129684,0,0,1.1129685,-19.856011,-22.672378)">
    <path
       id="path0"
       d="m 115.909,96.405 c -0.516,0.533 -4.516,1.222 -18.909,3.258 -1.925,0.272 -5.408,1.36 -7.739,2.416 -2.332,1.057 -4.64,1.921 -5.129,1.921 -2.052,0 -15.223,6.867 -18.457,9.623 -1.211,1.032 -3.544,2.552 -5.184,3.377 -2.636,1.326 -7.829,6.409 -16.759,16.402 -1.522,1.704 -4.421,5.573 -6.442,8.598 -2.02,3.025 -4.037,5.65 -4.482,5.833 -0.444,0.184 -0.808,1.141 -0.808,2.128 0,0.987 -0.631,2.318 -1.402,2.958 -0.771,0.639 -1.704,2.366 -2.073,3.837 -0.369,1.471 -1.538,4.578 -2.598,6.904 -1.06,2.327 -1.927,4.858 -1.927,5.625 0,0.767 -0.9,4.914 -2,9.215 -3.146,12.301 -2.408,42.025 1.141,45.95 0.472,0.523 0.859,2.198 0.859,3.723 0,2.621 1.44,6.424 6.369,16.822 2.156,4.546 3.026,6.02 8.174,13.846 2.875,4.372 17.45,19.8 20.461,21.659 6.741,4.163 8.996,5.817 8.996,6.599 0,0.495 0.585,0.901 1.301,0.901 1.839,0 6.682,2.352 6.691,3.25 0.004,0.413 0.808,0.75 1.785,0.75 0.978,0 2.666,0.596 3.75,1.324 23.635,15.861 81.583,7.992 105.471,-14.322 1.767,-1.651 3.494,-3.002 3.836,-3.002 1.232,0 12.309,-12.51 15.89,-17.945 2.013,-3.055 4.023,-5.705 4.468,-5.888 0.444,-0.184 0.808,-1.013 0.808,-1.843 0,-0.83 0.9,-2.653 2,-4.051 1.1,-1.399 2.002,-3.27 2.004,-4.158 0.002,-0.888 0.902,-3.088 2,-4.889 1.098,-1.801 1.996,-4.613 1.996,-6.25 0,-1.637 0.389,-2.976 0.863,-2.976 4.832,0 4.799,-54.618 -0.034,-57.606 -0.456,-0.281 -0.829,-1.628 -0.829,-2.993 0,-1.364 -0.836,-4.15 -1.858,-6.191 -1.022,-2.04 -2.156,-4.948 -2.519,-6.46 -0.364,-1.512 -1.067,-2.75 -1.563,-2.75 -0.495,0 -1.202,-1.371 -1.57,-3.048 -0.369,-1.676 -1.529,-3.584 -2.58,-4.24 -1.05,-0.656 -1.91,-1.947 -1.91,-2.869 0,-0.922 -0.338,-1.826 -0.75,-2.01 -0.412,-0.183 -2.388,-2.358 -4.39,-4.833 -6.354,-7.856 -8.21,-9.735 -14.86,-15.042 C 179.953,113.536 171.418,108 169.564,108 c -0.769,0 -1.547,-0.42 -1.731,-0.933 -0.454,-1.271 -13.178,-6.01 -19.333,-7.2 -11.81,-2.284 -16.455,-2.961 -24,-3.5 -4.4,-0.315 -8.266,-0.298 -8.591,0.038 m 13.327,4.559 c 2.345,0.529 7.639,1.482 11.764,2.115 4.125,0.634 9.408,2 11.739,3.037 2.332,1.036 4.681,1.884 5.22,1.884 4.802,0 23.223,12.217 32.94,21.847 6.908,6.846 9.184,9.562 12.601,15.035 0.55,0.881 2.013,2.878 3.25,4.437 1.238,1.559 2.25,3.42 2.25,4.135 0,0.716 0.675,1.861 1.5,2.546 0.825,0.685 1.5,1.984 1.5,2.887 0,0.904 0.9,3.322 2,5.374 1.1,2.053 2,4.832 2,6.176 0,1.345 0.386,2.683 0.857,2.975 4.648,2.872 4.648,48.304 0,51.176 -0.471,0.292 -0.857,2.023 -0.857,3.849 0,1.825 -0.684,3.886 -1.521,4.58 -0.836,0.694 -2.011,3.211 -2.611,5.592 -0.6,2.382 -1.715,4.849 -2.479,5.483 -0.764,0.634 -1.389,1.557 -1.389,2.052 0,1.298 -5.252,9.211 -6.74,10.156 -0.693,0.44 -1.26,1.289 -1.26,1.886 0,0.598 -3.335,4.401 -7.411,8.451 -9.857,9.793 -15.915,10.043 -21.571,0.891 -3.705,-5.994 -4.425,-4.789 14.621,-24.44 15.577,-16.071 17.371,-18.739 17.339,-25.788 -0.025,-5.576 -3.179,-13.3 -5.429,-13.3 -0.852,0 -1.549,-0.406 -1.549,-0.902 0,-1.347 -5.762,-3.098 -10.195,-3.098 -6.724,0 -11.617,3.814 -35.584,27.739 -26.753,26.705 -27.935,27.384 -35.236,20.247 -7.976,-7.797 -7.284,-8.881 28.688,-44.894 C 177.471,169.255 177,169.851 177,160.969 177,150.064 171.324,144 161.117,144 c -7.741,0 -8.557,0.593 -29.819,21.667 C 65.434,230.946 70.731,226 66.68,226 60.629,226 55.608,220.714 55.641,214.38 l 0.025,-4.88 28.544,-28.542 c 26.442,-26.44 28.597,-28.859 29.269,-32.831 2.089,-12.368 -3.091,-20.253 -13.752,-20.932 -9.997,-0.636 -12.176,0.532 -24.876,13.341 -13.287,13.4 -16.265,14.468 -23.206,8.323 -7.921,-7.013 -5.571,-13.045 10.076,-25.859 3.191,-2.614 4.804,-3.761 9.779,-6.955 1.65,-1.06 3.544,-2.403 4.208,-2.986 0.664,-0.582 1.812,-1.059 2.55,-1.059 0.738,0 1.769,-0.394 2.292,-0.877 0.522,-0.482 3.65,-1.843 6.95,-3.025 3.3,-1.182 6.9,-2.557 8,-3.055 2.106,-0.955 4.343,-1.375 16.472,-3.095 4.11,-0.582 7.673,-1.259 7.917,-1.504 0.732,-0.732 4.812,-0.505 9.347,0.52 m 197.78,1.569 c -3.566,1.403 -6.851,3.207 -7.3,4.009 -0.448,0.802 -1.468,1.458 -2.266,1.458 -0.797,0 -1.45,0.653 -1.45,1.45 0,0.798 -0.616,1.81 -1.37,2.25 -11.862,6.925 -12.073,87.646 -0.264,100.953 4.601,5.185 5.598,5.886 12.502,8.792 14.628,6.156 35.27,1.123 42.382,-10.334 10.197,-16.425 10.237,-81.735 0.06,-98.126 -7.038,-11.335 -27.312,-16.346 -42.294,-10.452 m -76.774,59.717 0.258,59.25 24.75,0.267 24.75,0.268 0,-9.018 0,-9.017 -12.5,0 -12.5,0 0,-17.5 0,-17.5 8.5,0 8.5,0 0,-9 0,-9 -8.5,0 -8.5,0 0,-15.5 0,-15.5 12.5,0 12.5,0 0,-8.5 0,-8.5 -25.008,0 -25.008,0 0.258,59.25 M 26.75,109.392 c -3.295,2.501 -2.273,6.608 1.643,6.608 3.616,0 5.02,-1.71 3.899,-4.75 -1.199,-3.249 -2.94,-3.833 -5.542,-1.858 m 172.443,0.671 c -1.962,3.141 -0.608,5.937 2.874,5.937 2.546,0 2.933,-0.37 2.933,-2.8 0,-4.907 -3.516,-6.806 -5.807,-3.137 m 148.625,12.687 c 3.682,5.18 4.171,9.842 4.176,39.851 0.006,29.95 -0.335,33.078 -4.215,38.649 -2.922,4.195 -10.263,3.921 -13.779,-0.515 l -2.5,-3.154 -0.357,-27.429 c -0.453,-34.878 0.169,-43.181 3.538,-47.185 3.517,-4.179 10.242,-4.29 13.137,-0.217 M 18.425,140.443 c -0.756,3.011 0.11,4.557 2.552,4.557 4.757,0 6.486,-2.68 3.594,-5.571 -2.288,-2.288 -5.448,-1.767 -6.146,1.014 m 202.242,1.224 c -1.527,1.526 -0.638,6.207 1.295,6.821 2.289,0.726 6.052,-1.011 6.006,-2.773 -0.087,-3.327 -5.192,-6.157 -7.301,-4.048 m 90.398,109.755 c -0.649,0.782 -2.054,3.707 -3.123,6.5 -1.068,2.793 -2.885,7.441 -4.038,10.328 -5.063,12.684 -6.01,15.909 -5.716,19.468 l 0.312,3.782 7.25,0.294 7.25,0.294 0,5.956 0,5.956 5.5,0 5.5,0 0,-5.93 c 0,-5.389 0.206,-5.96 2.25,-6.25 3.681,-0.523 3.97,-9.82 0.305,-9.82 l -2.555,0 0,-16 0,-16 -5.878,0 c -3.861,0 -6.282,0.488 -7.057,1.422 M 313,276 c 0,5.746 -0.107,6 -2.52,6 l -2.521,0 2.021,-3.96 c 1.111,-2.178 2.02,-4.878 2.02,-6 0,-1.122 0.225,-2.04 0.5,-2.04 0.275,0 0.5,2.7 0.5,6 m -110.345,10.829 c -3.087,3.411 -1.316,6.097 4.06,6.157 2.446,0.028 3.454,-3.766 1.581,-5.954 -2.151,-2.512 -3.508,-2.561 -5.641,-0.203 m -177.048,3.753 c -1.494,3.894 -0.711,5.418 2.786,5.418 3.651,0 4.822,-1.464 3.922,-4.904 -0.672,-2.569 -5.769,-2.96 -6.708,-0.514"
       inkscape:connector-curvature="0"
       style="fill:#000000;fill-rule:evenodd;stroke:none" />
  </g>
</svg>
