<?xml version="1.0" encoding="UTF-8" standalone="no"?>
<svg
   xmlns:dc="http://purl.org/dc/elements/1.1/"
   xmlns:cc="http://creativecommons.org/ns#"
   xmlns:rdf="http://www.w3.org/1999/02/22-rdf-syntax-ns#"
   xmlns:svg="http://www.w3.org/2000/svg"
   xmlns="http://www.w3.org/2000/svg"
   xmlns:sodipodi="http://sodipodi.sourceforge.net/DTD/sodipodi-0.dtd"
   xmlns:inkscape="http://www.inkscape.org/namespaces/inkscape"
   id="svg"
   version="1.1"
   width="420"
   height="420"
   style="display:block"
   inkscape:version="0.91 r13725"
   sodipodi:docname="logo-eo4-2col-round-1300x1300.svg">
  <metadata
     id="metadata11">
    <rdf:RDF>
      <cc:Work
         rdf:about="">
        <dc:format>image/svg+xml</dc:format>
        <dc:type
           rdf:resource="http://purl.org/dc/dcmitype/StillImage" />
        <dc:title></dc:title>
      </cc:Work>
    </rdf:RDF>
  </metadata>
  <defs
     id="defs9" />
  <sodipodi:namedview
     pagecolor="#ffffff"
     bordercolor="#666666"
     borderopacity="1"
     objecttolerance="10"
     gridtolerance="10"
     guidetolerance="10"
     inkscape:pageopacity="0"
     inkscape:pageshadow="2"
     inkscape:window-width="1847"
     inkscape:window-height="1053"
     id="namedview7"
     showgrid="false"
     inkscape:zoom="0.59"
     inkscape:cx="-114.40678"
     inkscape:cy="200"
     inkscape:window-x="73"
     inkscape:window-y="27"
     inkscape:window-maximized="1"
     inkscape:current-layer="svg" />
  <circle
     style="opacity:1;fill:#ffffff;fill-opacity:1;stroke:none;stroke-width:3.67072916;stroke-linecap:square;stroke-linejoin:miter;stroke-miterlimit:0;stroke-dasharray:0.91768222, 0.91768221999999999;stroke-dashoffset:3.08999991;stroke-opacity:1"
     id="path4139"
     cx="210"
     cy="210"
     r="208.16464" />
  <g
     id="svgg"
     transform="translate(9.9908238,10.092654)">
    <path
       id="path0"
       d="m 286.231,118.077 c 3.511,0.049 9.257,0.049 12.769,0 3.512,-0.05 0.638,-0.09 -6.385,-0.09 -7.023,0 -9.896,0.04 -6.384,0.09 m 26.148,12.692 c 0,0.593 0.063,0.835 0.141,0.539 0.077,-0.296 0.077,-0.781 0,-1.077 -0.078,-0.296 -0.141,-0.054 -0.141,0.538 m 24.993,10.539 c -0.082,0.211 -0.112,6.407 -0.067,13.769 l 0.08,13.385 0.154,-13.77 c 0.084,-7.573 0.114,-13.769 0.067,-13.769 -0.048,0 -0.153,0.173 -0.234,0.385 m -24.993,47.307 c 0,0.593 0.063,0.835 0.141,0.539 0.077,-0.296 0.077,-0.781 0,-1.077 -0.078,-0.296 -0.141,-0.054 -0.141,0.538"
       inkscape:connector-curvature="0"
       style="fill:#000000;fill-rule:evenodd;stroke:none" />
    <path
       id="path1"
       d="m 115.342,93.376 c -0.442,0.442 -12.38,2.521 -15.854,2.762 -2.442,0.169 -6.972,1.289 -8.882,2.195 -0.519,0.246 -1.214,0.503 -1.544,0.571 -0.33,0.067 -1.431,0.498 -2.447,0.956 -1.748,0.791 -4.184,1.586 -5.538,1.809 -0.339,0.056 -1.835,0.742 -3.326,1.524 -1.491,0.782 -2.835,1.422 -2.987,1.422 -0.151,0 -0.75,0.312 -1.331,0.693 -1.425,0.934 -3.078,1.878 -3.335,1.903 -0.425,0.04 -4.677,2.831 -6.347,4.165 -0.948,0.756 -1.875,1.398 -2.061,1.425 -0.187,0.028 -0.954,0.461 -1.707,0.964 -0.752,0.502 -1.921,1.275 -2.598,1.717 -2.806,1.831 -13.812,13.238 -17.498,18.133 -0.86,1.143 -1.671,2.077 -1.802,2.077 -0.131,0 -0.24,0.173 -0.242,0.385 -0.001,0.211 -0.487,0.994 -1.08,1.739 -0.592,0.745 -1.853,2.522 -2.802,3.948 -0.949,1.427 -2.268,3.163 -2.93,3.859 -1.194,1.256 -1.348,1.593 -1.613,3.547 -0.145,1.066 -0.414,1.502 -1.803,2.93 -0.465,0.479 -0.863,0.998 -0.884,1.154 -0.021,0.157 -0.067,0.388 -0.102,0.515 -0.035,0.127 -0.177,0.646 -0.316,1.154 -0.38,1.39 -2.031,5.484 -2.392,5.931 -0.174,0.215 -0.227,0.481 -0.118,0.59 0.11,0.11 0.015,0.487 -0.209,0.839 -0.939,1.473 -2.085,4.989 -2.489,7.644 -0.239,1.563 -0.939,4.781 -1.556,7.15 -1.744,6.695 -2.574,23.485 -1.696,34.286 0.214,2.635 0.371,5.112 0.347,5.504 -0.085,1.416 0.94,5.48 1.838,7.287 0.612,1.23 1.018,2.667 1.22,4.308 0.333,2.713 0.606,3.728 1.734,6.444 0.417,1.007 0.805,2.072 0.862,2.367 0.057,0.295 0.727,1.791 1.489,3.324 0.761,1.533 1.325,2.788 1.253,2.788 -0.072,0 0.56,1.33 1.405,2.955 0.846,1.626 1.537,3.139 1.537,3.363 0,0.224 0.18,0.59 0.4,0.813 0.22,0.224 0.866,1.238 1.436,2.253 0.57,1.016 1.574,2.608 2.231,3.539 0.657,0.93 1.901,2.781 2.764,4.112 0.863,1.331 2.116,2.992 2.785,3.692 0.67,0.7 1.376,1.496 1.57,1.769 2.484,3.493 16.647,17.312 18.915,18.455 1.004,0.506 3.534,2.16 3.746,2.448 0.084,0.116 0.459,0.305 0.833,0.422 0.513,0.16 2.125,1.865 2.718,2.876 0.026,0.045 0.865,0.294 1.864,0.553 2.147,0.558 4.948,2.038 5.823,3.077 0.415,0.493 1.17,0.843 2.268,1.051 1.65,0.313 5.571,2.049 5.571,2.467 0,0.269 7.577,3.603 8.637,3.801 0.411,0.076 1.993,0.489 3.516,0.916 3.738,1.049 7.308,1.766 9.539,1.918 11.452,0.777 13.28,0.819 19.318,0.447 3.421,-0.212 6.651,-0.365 7.177,-0.342 1.715,0.078 10.585,-1.411 14.612,-2.452 0.608,-0.157 1.716,-0.347 2.461,-0.423 0.745,-0.076 3.155,-0.709 5.355,-1.408 2.2,-0.698 4.241,-1.269 4.535,-1.267 0.294,0.002 2.083,-0.612 3.975,-1.362 1.892,-0.751 3.602,-1.366 3.8,-1.366 0.198,0 1.767,-0.688 3.486,-1.529 1.72,-0.841 3.127,-1.458 3.127,-1.371 0,0.147 1.515,-0.666 4,-2.147 0.592,-0.353 1.181,-0.66 1.308,-0.682 0.127,-0.022 0.359,-0.057 0.516,-0.078 0.157,-0.022 0.469,-0.218 0.692,-0.437 0.224,-0.218 1.45,-1.045 2.725,-1.836 1.274,-0.791 2.867,-1.927 3.538,-2.525 0.672,-0.598 1.383,-1.087 1.58,-1.087 0.197,0 0.405,-0.128 0.462,-0.284 0.2,-0.556 4.442,-4.126 6.423,-5.406 2.111,-1.365 5.449,-4.811 9.986,-10.31 1.466,-1.777 2.862,-3.384 3.102,-3.572 0.241,-0.188 0.437,-0.48 0.437,-0.649 0,-0.169 0.519,-0.916 1.154,-1.659 0.635,-0.743 1.985,-2.591 3,-4.106 1.015,-1.516 2.365,-3.265 3,-3.887 0.82,-0.804 1.154,-1.396 1.154,-2.045 0,-0.912 1.255,-3.649 1.944,-4.241 0.573,-0.492 2.009,-3.549 2.381,-5.072 0.186,-0.761 0.999,-2.7 1.806,-4.307 1.812,-3.611 2.099,-4.514 2.299,-7.231 0.087,-1.185 0.164,-2.197 0.171,-2.249 0.008,-0.052 0.145,-0.015 0.304,0.084 0.712,0.44 1.988,-1.973 2.319,-4.387 1.372,-10.005 1.849,-18.695 1.582,-28.833 -0.174,-6.615 -0.89,-17.063 -1.254,-18.298 -0.076,-0.259 -0.214,-1.329 -0.305,-2.378 -0.184,-2.111 -1.136,-4.836 -2.02,-5.785 -0.384,-0.412 -0.676,-1.434 -0.884,-3.09 -0.289,-2.311 -0.744,-3.723 -2.176,-6.757 -0.812,-1.72 -2.06,-4.98 -2.512,-6.559 -0.21,-0.731 -0.893,-1.89 -1.52,-2.575 -0.808,-0.885 -1.326,-1.893 -1.787,-3.477 -0.59,-2.032 -2.041,-4.158 -2.838,-4.158 -0.401,0 -1.404,-1.998 -1.596,-3.178 -0.144,-0.887 -0.641,-1.618 -2.087,-3.068 -1.043,-1.047 -2.09,-2.178 -2.324,-2.514 -0.235,-0.335 -0.909,-1.167 -1.498,-1.848 -0.589,-0.681 -2.512,-2.91 -4.273,-4.955 -1.84,-2.135 -4.611,-4.884 -6.512,-6.461 -1.82,-1.51 -3.876,-3.264 -4.57,-3.899 -0.694,-0.634 -1.419,-1.154 -1.611,-1.154 -0.191,0 -0.531,-0.22 -0.755,-0.49 -0.224,-0.269 -1.591,-1.328 -3.038,-2.353 -1.447,-1.024 -2.677,-1.981 -2.733,-2.125 -0.057,-0.144 -0.299,-0.262 -0.539,-0.262 -0.239,0 -0.436,-0.147 -0.436,-0.326 0,-0.18 -0.114,-0.255 -0.255,-0.169 -0.14,0.087 -0.767,-0.264 -1.394,-0.781 -1.517,-1.25 -6.295,-3.829 -7.61,-4.106 -0.576,-0.122 -1.394,-0.546 -1.818,-0.942 -0.822,-0.77 -4.212,-2.589 -4.837,-2.596 -0.206,-0.002 -1.106,-0.328 -2,-0.723 -3.026,-1.342 -3.803,-1.59 -11.754,-3.759 -1.509,-0.411 -3.725,-0.875 -4.923,-1.03 -1.198,-0.155 -4.047,-0.633 -6.332,-1.061 -7.753,-1.453 -23.462,-2.481 -24.35,-1.593 m 226.655,3.846 c -3.805,0.541 -8.639,1.936 -11.305,3.262 -1.48,0.737 -2.692,1.27 -2.692,1.185 0,-0.179 -0.212,-0.015 -2.362,1.829 -0.876,0.751 -2.018,1.46 -2.538,1.574 -1.032,0.226 -1.869,1.18 -1.869,2.129 0,0.331 -0.596,1.166 -1.325,1.854 -2.184,2.066 -3.897,5.031 -4.545,7.868 -0.135,0.592 -0.669,2.669 -1.187,4.615 -0.517,1.947 -1.08,4.647 -1.25,6 -0.573,4.568 -1.226,10.439 -1.609,14.462 -0.502,5.271 -0.505,29.078 -0.005,34.462 1.37,14.755 1.757,17.625 3.177,23.538 1.407,5.86 1.499,6.154 2.62,8.443 0.576,1.175 1.049,2.282 1.051,2.462 0.006,0.405 4.433,5.394 5.688,6.409 1.553,1.255 4.67,3.301 5.031,3.301 0.187,0 1.347,0.467 2.578,1.038 2.157,0.999 3.812,1.614 5.038,1.872 0.321,0.068 1.622,0.366 2.892,0.663 3.325,0.778 12.086,0.777 15.688,-10e-4 1.436,-0.311 2.889,-0.597 3.23,-0.636 1.305,-0.148 5.58,-1.75 6.765,-2.534 0.334,-0.221 0.804,-0.402 1.043,-0.402 2.94,0 11.131,-8.595 12.609,-13.23 2.584,-8.103 3.53,-12.829 4.802,-24 1.776,-15.583 1.362,-37.938 -0.965,-52.154 -0.443,-2.708 -0.788,-5.208 -0.767,-5.556 0.037,-0.589 -0.811,-3.867 -2.422,-9.367 -0.694,-2.367 -2.327,-5.747 -3.522,-7.289 -0.698,-0.901 -4.092,-4.404 -4.267,-4.404 -0.104,0 -0.789,-0.458 -1.523,-1.017 -1.36,-1.039 -5.287,-3.064 -8.056,-4.156 -4.657,-1.837 -14.791,-2.961 -20.003,-2.22 m -216.151,0.292 c 0.762,0.136 3.946,0.748 7.077,1.361 3.131,0.613 6.8,1.263 8.154,1.446 4.325,0.583 10.999,2.443 14.615,4.074 1.1,0.496 2.807,1.016 3.793,1.156 1.782,0.254 6.77,2.481 9.746,4.353 16.252,10.225 28.508,21.043 34.969,30.865 1.002,1.523 2.832,4.134 4.067,5.801 1.236,1.667 2.634,3.985 3.108,5.15 0.475,1.165 1.288,2.603 1.807,3.195 0.781,0.889 1.895,3.546 1.895,4.519 0,0.135 0.467,1.252 1.038,2.482 2.029,4.375 2.34,5.242 2.778,7.753 0.291,1.667 0.717,2.943 1.238,3.712 1.087,1.601 1.699,3.771 2.042,7.234 0.159,1.608 0.437,4.447 0.618,6.308 0.42,4.339 0.42,19.246 -0.001,23.846 -0.765,8.369 -0.918,9.486 -1.555,11.385 -0.368,1.1 -0.935,2.285 -1.259,2.634 -0.405,0.436 -0.692,1.444 -0.92,3.23 -0.401,3.155 -0.801,4.555 -1.532,5.367 -0.929,1.032 -2.687,4.797 -3.325,7.119 -0.719,2.624 -1.073,3.354 -2.213,4.573 -0.475,0.508 -1.131,1.634 -1.458,2.502 -0.327,0.869 -0.961,2.059 -1.408,2.644 -0.447,0.586 -0.812,1.166 -0.812,1.289 0,0.417 -2.877,4.325 -4.366,5.931 -0.814,0.878 -1.48,1.814 -1.48,2.079 0,0.924 -9.795,10.942 -13.156,13.457 -7.207,5.391 -12.578,3.421 -17.998,-6.6 -1.625,-3.004 -0.112,-5.005 17.288,-22.865 15.558,-15.969 16.942,-18.069 16.942,-25.701 0,-6.477 -2.721,-13.348 -5.53,-13.965 -0.461,-0.101 -1.305,-0.666 -1.876,-1.255 -2.365,-2.44 -11.032,-3.56 -15.121,-1.954 -4.834,1.9 -11.193,7.306 -27.298,23.207 -22.701,22.415 -23.541,23.219 -26.79,25.648 -6.339,4.74 -8.264,4.671 -13.582,-0.49 -4.895,-4.75 -5.347,-6.734 -2.568,-11.276 1.196,-1.954 3.934,-5.592 5.238,-6.959 0.565,-0.592 2.871,-3.011 5.124,-5.376 2.252,-2.364 12.888,-13.165 23.634,-24.002 20.172,-20.342 25.313,-25.743 28.273,-29.699 0.95,-1.269 1.888,-2.478 2.085,-2.687 2.635,-2.797 2.359,-14.768 -0.452,-19.579 -4.124,-7.061 -15.333,-9.601 -22.677,-5.14 -4.639,2.819 -6.7,4.772 -41.891,39.698 -45.235,44.895 -42.786,42.678 -46.838,42.397 -6.793,-0.471 -10.478,-4.813 -10.739,-12.656 l -0.133,-3.967 24.128,-24.187 c 36.776,-36.865 35.054,-34.824 35.482,-42.033 0.769,-12.944 -5.024,-18.848 -18.215,-18.565 l -4.869,0.104 -2.589,1.328 c -3.732,1.916 -5.232,3.177 -13.436,11.298 -14.952,14.801 -17.584,15.783 -24.881,9.284 -8.116,-7.228 -5.318,-13.064 13.648,-28.462 0.687,-0.557 2.768,-1.978 4.625,-3.157 1.857,-1.178 4.283,-2.828 5.39,-3.666 1.107,-0.838 2.601,-1.684 3.32,-1.881 0.719,-0.196 2.728,-1.031 4.463,-1.856 1.736,-0.824 4.02,-1.787 5.077,-2.139 1.057,-0.353 3.375,-1.2 5.152,-1.884 1.777,-0.683 3.923,-1.498 4.77,-1.812 1.872,-0.695 7.047,-1.734 9.903,-1.988 4.562,-0.406 13.069,-1.94 14.11,-2.543 0.693,-0.403 3.354,-0.444 5.371,-0.085 m 128,19.204 c 0,9.195 0.092,36.672 0.205,61.059 l 0.205,44.34 1.103,0.159 c 0.606,0.088 12.145,0.252 25.641,0.364 l 24.538,0.204 0,-9.422 0,-9.422 -12.923,0 -12.923,0 0,-17.846 0,-17.846 8.77,0 8.769,0 0,-9.539 0,-9.538 -8.769,0 -8.77,0 0,-15.699 0,-15.699 12.923,0.084 12.924,0.083 0,-9 -10e-4,-9 -25.846,0 -25.846,0 0,16.718 M 26.012,105.707 c -5.07,1.743 -4.874,8.139 0.249,8.139 3.295,0 4.701,-1.266 4.439,-3.995 -0.297,-3.095 -2.381,-4.937 -4.688,-4.144 m 176.816,0.147 c -3.718,2.266 -2.683,7.662 1.52,7.929 2.913,0.186 3.513,-0.384 3.456,-3.281 -0.083,-4.233 -2.284,-6.29 -4.976,-4.648 m 149.118,13.031 c 2.434,1.626 4.789,5.774 5.157,9.079 0.087,0.782 0.295,2.297 0.461,3.369 1.204,7.764 1.16,53.12 -0.059,60.273 -0.195,1.148 -0.401,2.541 -0.456,3.098 -0.109,1.083 -1.611,4.681 -1.955,4.681 -0.113,0 -0.441,0.519 -0.728,1.153 -2.293,5.068 -10.348,4.461 -14.797,-1.115 l -1.736,-2.176 -0.337,-20.239 c -0.701,-42.173 0.12,-53.08 4.268,-56.722 3.025,-2.656 7.403,-3.259 10.182,-1.401 M 17.191,136.464 c -1.707,0.928 -2.435,4.998 -1.114,6.227 0.929,0.864 2.666,1.143 4.453,0.714 0.809,-0.194 1.579,-0.342 1.712,-0.329 0.801,0.077 1.851,-1.95 1.601,-3.089 -0.108,-0.495 -0.173,-0.984 -0.144,-1.088 0.451,-1.588 -4.592,-3.476 -6.508,-2.435 m 206.343,3.598 c -1.133,1.346 -1.017,4.138 0.252,6.056 1.823,2.755 8.374,0.626 7.782,-2.53 -0.164,-0.872 -2.03,-3.794 -2.03,-3.178 0,0.103 -0.503,-0.155 -1.119,-0.573 -1.723,-1.169 -3.793,-1.074 -4.885,0.225 m 97.663,111.151 c -0.075,0.075 -0.825,0.166 -1.666,0.202 -2.855,0.124 -4.657,2.525 -6.903,9.2 -0.552,1.644 -1.167,3.18 -2.029,5.077 -0.231,0.508 -0.648,1.616 -0.927,2.462 -0.278,0.846 -0.962,2.646 -1.519,4 -4.246,10.315 -5.214,14.029 -4.903,18.809 l 0.203,3.117 2.658,0.183 c 1.462,0.1 4.77,0.273 7.351,0.384 l 4.692,0.201 0,5.961 0,5.96 5.97,0 5.97,0 0.107,-5.491 c 0.118,-6.051 0.208,-6.356 1.986,-6.689 2.629,-0.493 4.097,-5.251 2.699,-8.746 -0.609,-1.521 -1.162,-1.843 -3.173,-1.843 l -1.559,0 0,-16.462 0,-16.461 -4.41,0 c -2.426,0 -4.472,0.061 -4.547,0.136 m -3.556,32.401 c -0.726,0.531 -3.987,0.532 -3.563,0.001 0.748,-0.934 3.57,-7.528 3.647,-8.519 0.223,-2.882 0.266,-2.563 0.352,2.595 0.082,4.941 0.035,5.579 -0.436,5.923 m -110.921,3.865 c -1.003,0.46 -2.105,1.43 -2.105,1.852 0,0.172 -0.196,0.531 -0.435,0.799 -3.002,3.348 4.138,7.897 7.263,4.626 2.781,-2.91 -1.124,-8.928 -4.723,-7.277 m -182.758,4.444 c -1.64,1.805 -2.084,4.992 -0.852,6.106 1.136,1.027 5.973,0.82 6.934,-0.297 3.073,-3.573 -2.916,-9.294 -6.082,-5.809"
       inkscape:connector-curvature="0"
       style="fill:#556080;fill-rule:evenodd;stroke:none" />
    <path
       id="path2"
       d="m 120.475,97.599 c -1.041,0.603 -9.548,2.137 -14.11,2.543 -2.856,0.254 -8.031,1.293 -9.903,1.988 -0.847,0.314 -2.993,1.129 -4.77,1.812 -1.777,0.684 -4.095,1.531 -5.152,1.884 -1.057,0.352 -3.341,1.315 -5.077,2.139 -1.735,0.825 -3.744,1.66 -4.463,1.856 -0.719,0.197 -2.213,1.043 -3.32,1.881 -1.107,0.838 -3.533,2.488 -5.39,3.666 -1.857,1.179 -3.938,2.6 -4.625,3.157 -18.966,15.398 -21.764,21.234 -13.648,28.462 7.297,6.499 9.929,5.517 24.881,-9.284 8.204,-8.121 9.704,-9.382 13.436,-11.298 l 2.589,-1.328 4.869,-0.104 c 13.191,-0.283 18.984,5.621 18.215,18.565 -0.428,7.209 1.294,5.168 -35.482,42.033 l -24.128,24.187 0.133,3.967 c 0.261,7.843 3.946,12.185 10.739,12.656 4.052,0.281 1.603,2.498 46.838,-42.397 35.191,-34.926 37.252,-36.879 41.891,-39.698 7.344,-4.461 18.553,-1.921 22.677,5.14 2.811,4.811 3.087,16.782 0.452,19.579 -0.197,0.209 -1.135,1.418 -2.085,2.687 -2.96,3.956 -8.101,9.357 -28.273,29.699 -10.746,10.837 -21.382,21.638 -23.634,24.002 -2.253,2.365 -4.559,4.784 -5.124,5.376 -1.304,1.367 -4.042,5.005 -5.238,6.959 -2.779,4.542 -2.327,6.526 2.568,11.276 5.318,5.161 7.243,5.23 13.582,0.49 3.249,-2.429 4.089,-3.233 26.79,-25.648 16.105,-15.901 22.464,-21.307 27.298,-23.207 4.089,-1.606 12.756,-0.486 15.121,1.954 0.571,0.589 1.415,1.154 1.876,1.255 2.809,0.617 5.53,7.488 5.53,13.965 0,7.632 -1.384,9.732 -16.942,25.701 -17.4,17.86 -18.913,19.861 -17.288,22.865 5.42,10.021 10.791,11.991 17.998,6.6 3.361,-2.515 13.156,-12.533 13.156,-13.457 0,-0.265 0.666,-1.201 1.48,-2.079 1.489,-1.606 4.366,-5.514 4.366,-5.931 0,-0.123 0.365,-0.703 0.812,-1.289 0.447,-0.585 1.081,-1.775 1.408,-2.644 0.327,-0.868 0.983,-1.994 1.458,-2.502 1.14,-1.219 1.494,-1.949 2.213,-4.573 0.638,-2.322 2.396,-6.087 3.325,-7.119 0.731,-0.812 1.131,-2.212 1.532,-5.367 0.228,-1.786 0.515,-2.794 0.92,-3.23 0.324,-0.349 0.891,-1.534 1.259,-2.634 0.637,-1.899 0.79,-3.016 1.555,-11.385 0.421,-4.6 0.421,-19.507 0.001,-23.846 -0.181,-1.861 -0.459,-4.7 -0.618,-6.308 -0.343,-3.463 -0.955,-5.633 -2.042,-7.234 -0.521,-0.769 -0.947,-2.045 -1.238,-3.712 -0.438,-2.511 -0.749,-3.378 -2.778,-7.753 -0.571,-1.23 -1.038,-2.347 -1.038,-2.482 0,-0.973 -1.114,-3.63 -1.895,-4.519 -0.519,-0.592 -1.332,-2.03 -1.807,-3.195 -0.474,-1.165 -1.872,-3.483 -3.108,-5.15 -1.235,-1.667 -3.065,-4.278 -4.067,-5.801 -6.461,-9.822 -18.717,-20.64 -34.969,-30.865 -2.976,-1.872 -7.964,-4.099 -9.746,-4.353 -0.986,-0.14 -2.693,-0.66 -3.793,-1.156 -3.616,-1.631 -10.29,-3.491 -14.615,-4.074 -1.354,-0.183 -5.023,-0.833 -8.154,-1.446 -3.131,-0.613 -6.315,-1.225 -7.077,-1.361 -2.017,-0.359 -4.678,-0.318 -5.371,0.085"
       inkscape:connector-curvature="0"
       style="fill:#88c057;fill-rule:evenodd;stroke:none" />
  </g>
</svg>
