<svg id="svg" version="1.1" width="400" height="400" xmlns="http://www.w3.org/2000/svg" xmlns:xlink="http://www.w3.org/1999/xlink" style="display: block;"><g id="svgg"><path id="path0" d="M286.231 118.077 C 289.742 118.126,295.488 118.126,299.000 118.077 C 302.512 118.027,299.638 117.987,292.615 117.987 C 285.592 117.987,282.719 118.027,286.231 118.077 M312.379 130.769 C 312.379 131.362,312.442 131.604,312.520 131.308 C 312.597 131.012,312.597 130.527,312.520 130.231 C 312.442 129.935,312.379 130.177,312.379 130.769 M337.372 141.308 C 337.290 141.519,337.260 147.715,337.305 155.077 L 337.385 168.462 337.539 154.692 C 337.623 147.119,337.653 140.923,337.606 140.923 C 337.558 140.923,337.453 141.096,337.372 141.308 M312.379 188.615 C 312.379 189.208,312.442 189.450,312.520 189.154 C 312.597 188.858,312.597 188.373,312.520 188.077 C 312.442 187.781,312.379 188.023,312.379 188.615 " stroke="none" fill="#000000" fill-rule="evenodd"></path><path id="path1" d="M115.342 93.376 C 114.900 93.818,102.962 95.897,99.488 96.138 C 97.046 96.307,92.516 97.427,90.606 98.333 C 90.087 98.579,89.392 98.836,89.062 98.904 C 88.732 98.971,87.631 99.402,86.615 99.860 C 84.867 100.651,82.431 101.446,81.077 101.669 C 80.738 101.725,79.242 102.411,77.751 103.193 C 76.260 103.975,74.916 104.615,74.764 104.615 C 74.613 104.615,74.014 104.927,73.433 105.308 C 72.008 106.242,70.355 107.186,70.098 107.211 C 69.673 107.251,65.421 110.042,63.751 111.376 C 62.803 112.132,61.876 112.774,61.690 112.801 C 61.503 112.829,60.736 113.262,59.983 113.765 C 59.231 114.267,58.062 115.040,57.385 115.482 C 54.579 117.313,43.573 128.720,39.887 133.615 C 39.027 134.758,38.216 135.692,38.085 135.692 C 37.954 135.692,37.845 135.865,37.843 136.077 C 37.842 136.288,37.356 137.071,36.763 137.816 C 36.171 138.561,34.910 140.338,33.961 141.764 C 33.012 143.191,31.693 144.927,31.031 145.623 C 29.837 146.879,29.683 147.216,29.418 149.170 C 29.273 150.236,29.004 150.672,27.615 152.100 C 27.150 152.579,26.752 153.098,26.731 153.254 C 26.710 153.411,26.664 153.642,26.629 153.769 C 26.594 153.896,26.452 154.415,26.313 154.923 C 25.933 156.313,24.282 160.407,23.921 160.854 C 23.747 161.069,23.694 161.335,23.803 161.444 C 23.913 161.554,23.818 161.931,23.594 162.283 C 22.655 163.756,21.509 167.272,21.105 169.927 C 20.866 171.490,20.166 174.708,19.549 177.077 C 17.805 183.772,16.975 200.562,17.853 211.363 C 18.067 213.998,18.224 216.475,18.200 216.867 C 18.115 218.283,19.140 222.347,20.038 224.154 C 20.650 225.384,21.056 226.821,21.258 228.462 C 21.591 231.175,21.864 232.190,22.992 234.906 C 23.409 235.913,23.797 236.978,23.854 237.273 C 23.911 237.568,24.581 239.064,25.343 240.597 C 26.104 242.130,26.668 243.385,26.596 243.385 C 26.524 243.385,27.156 244.715,28.001 246.340 C 28.847 247.966,29.538 249.479,29.538 249.703 C 29.538 249.927,29.718 250.293,29.938 250.516 C 30.158 250.740,30.804 251.754,31.374 252.769 C 31.944 253.785,32.948 255.377,33.605 256.308 C 34.262 257.238,35.506 259.089,36.369 260.420 C 37.232 261.751,38.485 263.412,39.154 264.112 C 39.824 264.812,40.530 265.608,40.724 265.881 C 43.208 269.374,57.371 283.193,59.639 284.336 C 60.643 284.842,63.173 286.496,63.385 286.784 C 63.469 286.900,63.844 287.089,64.218 287.206 C 64.731 287.366,66.343 289.071,66.936 290.082 C 66.962 290.127,67.801 290.376,68.800 290.635 C 70.947 291.193,73.748 292.673,74.623 293.712 C 75.038 294.205,75.793 294.555,76.891 294.763 C 78.541 295.076,82.462 296.812,82.462 297.230 C 82.462 297.499,90.039 300.833,91.099 301.031 C 91.510 301.107,93.092 301.520,94.615 301.947 C 98.353 302.996,101.923 303.713,104.154 303.865 C 115.606 304.642,117.434 304.684,123.472 304.312 C 126.893 304.100,130.123 303.947,130.649 303.970 C 132.364 304.048,141.234 302.559,145.261 301.518 C 145.869 301.361,146.977 301.171,147.722 301.095 C 148.467 301.019,150.877 300.386,153.077 299.687 C 155.277 298.989,157.318 298.418,157.612 298.420 C 157.906 298.422,159.695 297.808,161.587 297.058 C 163.479 296.307,165.189 295.692,165.387 295.692 C 165.585 295.692,167.154 295.004,168.873 294.163 C 170.593 293.322,172.000 292.705,172.000 292.792 C 172.000 292.939,173.515 292.126,176.000 290.645 C 176.592 290.292,177.181 289.985,177.308 289.963 C 177.435 289.941,177.667 289.906,177.824 289.885 C 177.981 289.863,178.293 289.667,178.516 289.448 C 178.740 289.230,179.966 288.403,181.241 287.612 C 182.515 286.821,184.108 285.685,184.779 285.087 C 185.451 284.489,186.162 284.000,186.359 284.000 C 186.556 284.000,186.764 283.872,186.821 283.716 C 187.021 283.160,191.263 279.590,193.244 278.310 C 195.355 276.945,198.693 273.499,203.230 268.000 C 204.696 266.223,206.092 264.616,206.332 264.428 C 206.573 264.240,206.769 263.948,206.769 263.779 C 206.769 263.610,207.288 262.863,207.923 262.120 C 208.558 261.377,209.908 259.529,210.923 258.014 C 211.938 256.498,213.288 254.749,213.923 254.127 C 214.743 253.323,215.077 252.731,215.077 252.082 C 215.077 251.170,216.332 248.433,217.021 247.841 C 217.594 247.349,219.030 244.292,219.402 242.769 C 219.588 242.008,220.401 240.069,221.208 238.462 C 223.020 234.851,223.307 233.948,223.507 231.231 C 223.594 230.046,223.671 229.034,223.678 228.982 C 223.686 228.930,223.823 228.967,223.982 229.066 C 224.694 229.506,225.970 227.093,226.301 224.679 C 227.673 214.674,228.150 205.984,227.883 195.846 C 227.709 189.231,226.993 178.783,226.629 177.548 C 226.553 177.289,226.415 176.219,226.324 175.170 C 226.140 173.059,225.188 170.334,224.304 169.385 C 223.920 168.973,223.628 167.951,223.420 166.295 C 223.131 163.984,222.676 162.572,221.244 159.538 C 220.432 157.818,219.184 154.558,218.732 152.979 C 218.522 152.248,217.839 151.089,217.212 150.404 C 216.404 149.519,215.886 148.511,215.425 146.927 C 214.835 144.895,213.384 142.769,212.587 142.769 C 212.186 142.769,211.183 140.771,210.991 139.591 C 210.847 138.704,210.350 137.973,208.904 136.523 C 207.861 135.476,206.814 134.345,206.580 134.009 C 206.345 133.674,205.671 132.842,205.082 132.161 C 204.493 131.480,202.570 129.251,200.809 127.206 C 198.969 125.071,196.198 122.322,194.297 120.745 C 192.477 119.235,190.421 117.481,189.727 116.846 C 189.033 116.212,188.308 115.692,188.116 115.692 C 187.925 115.692,187.585 115.472,187.361 115.202 C 187.137 114.933,185.770 113.874,184.323 112.849 C 182.876 111.825,181.646 110.868,181.590 110.724 C 181.533 110.580,181.291 110.462,181.051 110.462 C 180.812 110.462,180.615 110.315,180.615 110.136 C 180.615 109.956,180.501 109.881,180.360 109.967 C 180.220 110.054,179.593 109.703,178.966 109.186 C 177.449 107.936,172.671 105.357,171.356 105.080 C 170.780 104.958,169.962 104.534,169.538 104.138 C 168.716 103.368,165.326 101.549,164.701 101.542 C 164.495 101.540,163.595 101.214,162.701 100.819 C 159.675 99.477,158.898 99.229,150.947 97.060 C 149.438 96.649,147.222 96.185,146.024 96.030 C 144.826 95.875,141.977 95.397,139.692 94.969 C 131.939 93.516,116.230 92.488,115.342 93.376 M341.997 97.222 C 338.192 97.763,333.358 99.158,330.692 100.484 C 329.212 101.221,328.000 101.754,328.000 101.669 C 328.000 101.490,327.788 101.654,325.638 103.498 C 324.762 104.249,323.620 104.958,323.100 105.072 C 322.068 105.298,321.231 106.252,321.231 107.201 C 321.231 107.532,320.635 108.367,319.906 109.055 C 317.722 111.121,316.009 114.086,315.361 116.923 C 315.226 117.515,314.692 119.592,314.174 121.538 C 313.657 123.485,313.094 126.185,312.924 127.538 C 312.351 132.106,311.698 137.977,311.315 142.000 C 310.813 147.271,310.810 171.078,311.310 176.462 C 312.680 191.217,313.067 194.087,314.487 200.000 C 315.894 205.860,315.986 206.154,317.107 208.443 C 317.683 209.618,318.156 210.725,318.158 210.905 C 318.164 211.310,322.591 216.299,323.846 217.314 C 325.399 218.569,328.516 220.615,328.877 220.615 C 329.064 220.615,330.224 221.082,331.455 221.653 C 333.612 222.652,335.267 223.267,336.493 223.525 C 336.814 223.593,338.115 223.891,339.385 224.188 C 342.710 224.966,351.471 224.965,355.073 224.187 C 356.509 223.876,357.962 223.590,358.303 223.551 C 359.608 223.403,363.883 221.801,365.068 221.017 C 365.402 220.796,365.872 220.615,366.111 220.615 C 369.051 220.615,377.242 212.020,378.720 207.385 C 381.304 199.282,382.250 194.556,383.522 183.385 C 385.298 167.802,384.884 145.447,382.557 131.231 C 382.114 128.523,381.769 126.023,381.790 125.675 C 381.827 125.086,380.979 121.808,379.368 116.308 C 378.674 113.941,377.041 110.561,375.846 109.019 C 375.148 108.118,371.754 104.615,371.579 104.615 C 371.475 104.615,370.790 104.157,370.056 103.598 C 368.696 102.559,364.769 100.534,362.000 99.442 C 357.343 97.605,347.209 96.481,341.997 97.222 M125.846 97.514 C 126.608 97.650,129.792 98.262,132.923 98.875 C 136.054 99.488,139.723 100.138,141.077 100.321 C 145.402 100.904,152.076 102.764,155.692 104.395 C 156.792 104.891,158.499 105.411,159.485 105.551 C 161.267 105.805,166.255 108.032,169.231 109.904 C 185.483 120.129,197.739 130.947,204.200 140.769 C 205.202 142.292,207.032 144.903,208.267 146.570 C 209.503 148.237,210.901 150.555,211.375 151.720 C 211.850 152.885,212.663 154.323,213.182 154.915 C 213.963 155.804,215.077 158.461,215.077 159.434 C 215.077 159.569,215.544 160.686,216.115 161.916 C 218.144 166.291,218.455 167.158,218.893 169.669 C 219.184 171.336,219.610 172.612,220.131 173.381 C 221.218 174.982,221.830 177.152,222.173 180.615 C 222.332 182.223,222.610 185.062,222.791 186.923 C 223.211 191.262,223.211 206.169,222.790 210.769 C 222.025 219.138,221.872 220.255,221.235 222.154 C 220.867 223.254,220.300 224.439,219.976 224.788 C 219.571 225.224,219.284 226.232,219.056 228.018 C 218.655 231.173,218.255 232.573,217.524 233.385 C 216.595 234.417,214.837 238.182,214.199 240.504 C 213.480 243.128,213.126 243.858,211.986 245.077 C 211.511 245.585,210.855 246.711,210.528 247.579 C 210.201 248.448,209.567 249.638,209.120 250.223 C 208.673 250.809,208.308 251.389,208.308 251.512 C 208.308 251.929,205.431 255.837,203.942 257.443 C 203.128 258.321,202.462 259.257,202.462 259.522 C 202.462 260.446,192.667 270.464,189.306 272.979 C 182.099 278.370,176.728 276.400,171.308 266.379 C 169.683 263.375,171.196 261.374,188.596 243.514 C 204.154 227.545,205.538 225.445,205.538 217.813 C 205.538 211.336,202.817 204.465,200.008 203.848 C 199.547 203.747,198.703 203.182,198.132 202.593 C 195.767 200.153,187.100 199.033,183.011 200.639 C 178.177 202.539,171.818 207.945,155.713 223.846 C 133.012 246.261,132.172 247.065,128.923 249.494 C 122.584 254.234,120.659 254.165,115.341 249.004 C 110.446 244.254,109.994 242.270,112.773 237.728 C 113.969 235.774,116.707 232.136,118.011 230.769 C 118.576 230.177,120.882 227.758,123.135 225.393 C 125.387 223.029,136.023 212.228,146.769 201.391 C 166.941 181.049,172.082 175.648,175.042 171.692 C 175.992 170.423,176.930 169.214,177.127 169.005 C 179.762 166.208,179.486 154.237,176.675 149.426 C 172.551 142.365,161.342 139.825,153.998 144.286 C 149.359 147.105,147.298 149.058,112.107 183.984 C 66.872 228.879,69.321 226.662,65.269 226.381 C 58.476 225.910,54.791 221.568,54.530 213.725 L 54.397 209.758 78.525 185.571 C 115.301 148.706,113.579 150.747,114.007 143.538 C 114.776 130.594,108.983 124.690,95.792 124.973 L 90.923 125.077 88.334 126.405 C 84.602 128.321,83.102 129.582,74.898 137.703 C 59.946 152.504,57.314 153.486,50.017 146.987 C 41.901 139.759,44.699 133.923,63.665 118.525 C 64.352 117.968,66.433 116.547,68.290 115.368 C 70.147 114.190,72.573 112.540,73.680 111.702 C 74.787 110.864,76.281 110.018,77.000 109.821 C 77.719 109.625,79.728 108.790,81.463 107.965 C 83.199 107.141,85.483 106.178,86.540 105.826 C 87.597 105.473,89.915 104.626,91.692 103.942 C 93.469 103.259,95.615 102.444,96.462 102.130 C 98.334 101.435,103.509 100.396,106.365 100.142 C 110.927 99.736,119.434 98.202,120.475 97.599 C 121.168 97.196,123.829 97.155,125.846 97.514 M253.846 116.718 C 253.846 125.913,253.938 153.390,254.051 177.777 L 254.256 222.117 255.359 222.276 C 255.965 222.364,267.504 222.528,281.000 222.640 L 305.538 222.844 305.538 213.422 L 305.538 204.000 292.615 204.000 L 279.692 204.000 279.692 186.154 L 279.692 168.308 288.462 168.308 L 297.231 168.308 297.231 158.769 L 297.231 149.231 288.462 149.231 L 279.692 149.231 279.692 133.532 L 279.692 117.833 292.615 117.917 L 305.539 118.000 305.539 109.000 L 305.538 100.000 279.692 100.000 L 253.846 100.000 253.846 116.718 M26.012 105.707 C 20.942 107.450,21.138 113.846,26.261 113.846 C 29.556 113.846,30.962 112.580,30.700 109.851 C 30.403 106.756,28.319 104.914,26.012 105.707 M202.828 105.854 C 199.110 108.120,200.145 113.516,204.348 113.783 C 207.261 113.969,207.861 113.399,207.804 110.502 C 207.721 106.269,205.520 104.212,202.828 105.854 M351.946 118.885 C 354.380 120.511,356.735 124.659,357.103 127.964 C 357.190 128.746,357.398 130.261,357.564 131.333 C 358.768 139.097,358.724 184.453,357.505 191.606 C 357.310 192.754,357.104 194.147,357.049 194.704 C 356.940 195.787,355.438 199.385,355.094 199.385 C 354.981 199.385,354.653 199.904,354.366 200.538 C 352.073 205.606,344.018 204.999,339.569 199.423 L 337.833 197.247 337.496 177.008 C 336.795 134.835,337.616 123.928,341.764 120.286 C 344.789 117.630,349.167 117.027,351.946 118.885 M17.191 136.464 C 15.484 137.392,14.756 141.462,16.077 142.691 C 17.006 143.555,18.743 143.834,20.530 143.405 C 21.339 143.211,22.109 143.063,22.242 143.076 C 23.043 143.153,24.093 141.126,23.843 139.987 C 23.735 139.492,23.670 139.003,23.699 138.899 C 24.150 137.311,19.107 135.423,17.191 136.464 M223.534 140.062 C 222.401 141.408,222.517 144.200,223.786 146.118 C 225.609 148.873,232.160 146.744,231.568 143.588 C 231.404 142.716,229.538 139.794,229.538 140.410 C 229.538 140.513,229.035 140.255,228.419 139.837 C 226.696 138.668,224.626 138.763,223.534 140.062 M321.197 251.213 C 321.122 251.288,320.372 251.379,319.531 251.415 C 316.676 251.539,314.874 253.940,312.628 260.615 C 312.076 262.259,311.461 263.795,310.599 265.692 C 310.368 266.200,309.951 267.308,309.672 268.154 C 309.394 269.000,308.710 270.800,308.153 272.154 C 303.907 282.469,302.939 286.183,303.250 290.963 L 303.453 294.080 306.111 294.263 C 307.573 294.363,310.881 294.536,313.462 294.647 L 318.154 294.848 318.154 300.809 L 318.154 306.769 324.124 306.769 L 330.094 306.769 330.201 301.278 C 330.319 295.227,330.409 294.922,332.187 294.589 C 334.816 294.096,336.284 289.338,334.886 285.843 C 334.277 284.322,333.724 284.000,331.713 284.000 L 330.154 284.000 330.154 267.538 L 330.154 251.077 325.744 251.077 C 323.318 251.077,321.272 251.138,321.197 251.213 M317.641 283.614 C 316.915 284.145,313.654 284.146,314.078 283.615 C 314.826 282.681,317.648 276.087,317.725 275.096 C 317.948 272.214,317.991 272.533,318.077 277.691 C 318.159 282.632,318.112 283.270,317.641 283.614 M206.720 287.479 C 205.717 287.939,204.615 288.909,204.615 289.331 C 204.615 289.503,204.419 289.862,204.180 290.130 C 201.178 293.478,208.318 298.027,211.443 294.756 C 214.224 291.846,210.319 285.828,206.720 287.479 M23.962 291.923 C 22.322 293.728,21.878 296.915,23.110 298.029 C 24.246 299.056,29.083 298.849,30.044 297.732 C 33.117 294.159,27.128 288.438,23.962 291.923 " stroke="none" fill="#000000" fill-rule="evenodd"></path><path id="path2" d="M120.475 97.599 C 119.434 98.202,110.927 99.736,106.365 100.142 C 103.509 100.396,98.334 101.435,96.462 102.130 C 95.615 102.444,93.469 103.259,91.692 103.942 C 89.915 104.626,87.597 105.473,86.540 105.826 C 85.483 106.178,83.199 107.141,81.463 107.965 C 79.728 108.790,77.719 109.625,77.000 109.821 C 76.281 110.018,74.787 110.864,73.680 111.702 C 72.573 112.540,70.147 114.190,68.290 115.368 C 66.433 116.547,64.352 117.968,63.665 118.525 C 44.699 133.923,41.901 139.759,50.017 146.987 C 57.314 153.486,59.946 152.504,74.898 137.703 C 83.102 129.582,84.602 128.321,88.334 126.405 L 90.923 125.077 95.792 124.973 C 108.983 124.690,114.776 130.594,114.007 143.538 C 113.579 150.747,115.301 148.706,78.525 185.571 L 54.397 209.758 54.530 213.725 C 54.791 221.568,58.476 225.910,65.269 226.381 C 69.321 226.662,66.872 228.879,112.107 183.984 C 147.298 149.058,149.359 147.105,153.998 144.286 C 161.342 139.825,172.551 142.365,176.675 149.426 C 179.486 154.237,179.762 166.208,177.127 169.005 C 176.930 169.214,175.992 170.423,175.042 171.692 C 172.082 175.648,166.941 181.049,146.769 201.391 C 136.023 212.228,125.387 223.029,123.135 225.393 C 120.882 227.758,118.576 230.177,118.011 230.769 C 116.707 232.136,113.969 235.774,112.773 237.728 C 109.994 242.270,110.446 244.254,115.341 249.004 C 120.659 254.165,122.584 254.234,128.923 249.494 C 132.172 247.065,133.012 246.261,155.713 223.846 C 171.818 207.945,178.177 202.539,183.011 200.639 C 187.100 199.033,195.767 200.153,198.132 202.593 C 198.703 203.182,199.547 203.747,200.008 203.848 C 202.817 204.465,205.538 211.336,205.538 217.813 C 205.538 225.445,204.154 227.545,188.596 243.514 C 171.196 261.374,169.683 263.375,171.308 266.379 C 176.728 276.400,182.099 278.370,189.306 272.979 C 192.667 270.464,202.462 260.446,202.462 259.522 C 202.462 259.257,203.128 258.321,203.942 257.443 C 205.431 255.837,208.308 251.929,208.308 251.512 C 208.308 251.389,208.673 250.809,209.120 250.223 C 209.567 249.638,210.201 248.448,210.528 247.579 C 210.855 246.711,211.511 245.585,211.986 245.077 C 213.126 243.858,213.480 243.128,214.199 240.504 C 214.837 238.182,216.595 234.417,217.524 233.385 C 218.255 232.573,218.655 231.173,219.056 228.018 C 219.284 226.232,219.571 225.224,219.976 224.788 C 220.300 224.439,220.867 223.254,221.235 222.154 C 221.872 220.255,222.025 219.138,222.790 210.769 C 223.211 206.169,223.211 191.262,222.791 186.923 C 222.610 185.062,222.332 182.223,222.173 180.615 C 221.830 177.152,221.218 174.982,220.131 173.381 C 219.610 172.612,219.184 171.336,218.893 169.669 C 218.455 167.158,218.144 166.291,216.115 161.916 C 215.544 160.686,215.077 159.569,215.077 159.434 C 215.077 158.461,213.963 155.804,213.182 154.915 C 212.663 154.323,211.850 152.885,211.375 151.720 C 210.901 150.555,209.503 148.237,208.267 146.570 C 207.032 144.903,205.202 142.292,204.200 140.769 C 197.739 130.947,185.483 120.129,169.231 109.904 C 166.255 108.032,161.267 105.805,159.485 105.551 C 158.499 105.411,156.792 104.891,155.692 104.395 C 152.076 102.764,145.402 100.904,141.077 100.321 C 139.723 100.138,136.054 99.488,132.923 98.875 C 129.792 98.262,126.608 97.650,125.846 97.514 C 123.829 97.155,121.168 97.196,120.475 97.599 " stroke="none" fill="none" fill-rule="evenodd"></path></g></svg>
