<svg xmlns="http://www.w3.org/2000/svg" width="139" height="35" viewBox="0 0 139 35"><g fill="#FFF" fill-rule="evenodd"><path d="M116.29 9.69h.581V6.126h-.58zm1.964-2.58v.409h.013c.216-.313.558-.47 1.028-.47.208 0 .381.023.52.07a.874.874 0 0 1 .336.195.684.684 0 0 1 .181.297c.035.115.052.242.052.382V9.69h-.52V7.943a.464.464 0 0 0-.172-.38c-.114-.093-.27-.14-.47-.14-.16 0-.297.02-.414.06a.789.789 0 0 0-.29.17.707.707 0 0 0-.175.258.866.866 0 0 0-.058.322V9.69h-.52V7.109h.49zm2.944 2.58h.52V7.11h-.52v2.58zm0-3.045h.52v-.52h-.52v.52zm2.68.465v.374h-.63v1.603c0 .05.005.09.015.12.01.03.03.053.058.07a.295.295 0 0 0 .12.032c.05.005.117.007.198.007h.24v.375h-.399a2.28 2.28 0 0 1-.346-.023.565.565 0 0 1-.232-.082.353.353 0 0 1-.132-.17.81.81 0 0 1-.042-.29V7.485h-.539V7.11h.539v-.774h.52v.774h.63zm.606 2.58h.52V7.11h-.52v2.58zm0-3.045h.52v-.52h-.52v.52zm3.286 1.712a.736.736 0 0 1-.257.088 4.663 4.663 0 0 1-.334.044c-.116.012-.233.025-.351.04a1.54 1.54 0 0 0-.319.072.58.58 0 0 0-.23.142.346.346 0 0 0-.088.25c0 .07.017.129.052.177.035.048.08.087.135.117.055.03.12.051.193.064.073.014.15.02.232.02.171 0 .318-.019.44-.057a.995.995 0 0 0 .3-.144.591.591 0 0 0 .172-.189.405.405 0 0 0 .055-.191v-.433zm.844 1.324a.875.875 0 0 1-.373.065.511.511 0 0 1-.321-.093c-.08-.061-.12-.162-.12-.302-.142.14-.309.24-.498.302-.19.062-.395.093-.615.093-.143 0-.279-.014-.407-.04a1.052 1.052 0 0 1-.334-.125.644.644 0 0 1-.223-.222.635.635 0 0 1-.083-.332c0-.147.03-.267.092-.36a.718.718 0 0 1 .242-.227c.1-.058.214-.103.342-.132.129-.03.26-.055.395-.075.143-.024.279-.041.407-.053a2.74 2.74 0 0 0 .34-.05.62.62 0 0 0 .232-.095.21.21 0 0 0 .086-.182.364.364 0 0 0-.064-.224.418.418 0 0 0-.166-.13.786.786 0 0 0-.226-.06 2.104 2.104 0 0 0-.248-.015c-.22 0-.404.034-.55.102-.147.068-.227.197-.24.387h-.52a.786.786 0 0 1 .123-.404.839.839 0 0 1 .294-.268c.122-.068.262-.117.419-.147.157-.03.325-.045.505-.045a3.6 3.6 0 0 1 .425.025c.141.017.268.05.383.102a.693.693 0 0 1 .275.217.595.595 0 0 1 .104.364v1.325c0 .1.007.173.021.22.015.046.063.07.144.07a.77.77 0 0 0 .16-.02v.329zm1.836-2.571v.374h-.63v1.603c0 .05.005.09.015.12.01.03.03.053.058.07a.295.295 0 0 0 .12.032c.05.005.117.007.199.007h.238v.375h-.398c-.134 0-.25-.008-.345-.023a.565.565 0 0 1-.233-.082.353.353 0 0 1-.132-.17.81.81 0 0 1-.042-.29V7.485h-.539V7.11h.539v-.774h.52v.774h.63zm.606 2.58h.52V7.11h-.52v2.58zm0-3.045h.52v-.52h-.52v.52zm2.197 3.045l-1.175-2.58h.581l.888 2.151h.012l.863-2.152h.544l-1.156 2.582zm4.305-1.822a.733.733 0 0 0-.19-.232.93.93 0 0 0-.282-.155 1.064 1.064 0 0 0-.357-.057c-.135 0-.257.019-.365.057a.862.862 0 0 0-.278.157.756.756 0 0 0-.263.515h1.817a.74.74 0 0 0-.082-.285m.125 1.658c-.237.147-.534.22-.893.22-.253 0-.473-.034-.658-.1a1.315 1.315 0 0 1-.468-.28 1.14 1.14 0 0 1-.285-.43 1.721 1.721 0 0 1-.107-.544 1.27 1.27 0 0 1 .42-.964 1.44 1.44 0 0 1 .47-.279c.182-.066.38-.1.597-.1.282 0 .515.048.7.143a1.277 1.277 0 0 1 .68.841c.043.173.06.338.052.494h-2.368a.856.856 0 0 0 .049.322.698.698 0 0 0 .177.27c.082.078.186.14.312.187.127.047.276.07.447.07.22 0 .401-.041.542-.125a.6.6 0 0 0 .278-.38h.514c-.07.29-.222.509-.459.655M30.816 17.295c-.198.13-.458.225-.779.285-.322.06-.658.108-1.01.146a37.34 37.34 0 0 0-1.067.13 4.36 4.36 0 0 0-.964.236 1.745 1.745 0 0 0-.695.463c-.18.2-.27.475-.27.821 0 .228.053.42.158.578.105.157.241.284.408.382.167.098.362.168.584.212.223.043.458.064.705.064.52 0 .964-.062 1.335-.187.371-.124.674-.281.909-.471a1.9 1.9 0 0 0 .52-.618c.11-.223.166-.431.166-.626v-1.415zm2.559 4.33c-.272.142-.649.213-1.131.213-.408 0-.733-.101-.974-.302-.24-.202-.361-.531-.361-.99a3.778 3.778 0 0 1-1.512.99 5.599 5.599 0 0 1-1.863.302c-.433 0-.844-.044-1.233-.13a3.052 3.052 0 0 1-1.011-.41 2.035 2.035 0 0 1-.677-.727c-.167-.3-.25-.661-.25-1.086 0-.48.092-.872.278-1.177.185-.305.43-.553.732-.743a3.6 3.6 0 0 1 1.039-.434c.39-.098.788-.18 1.196-.245a16.27 16.27 0 0 1 1.233-.171 7.66 7.66 0 0 0 1.03-.164c.296-.07.53-.174.704-.31.173-.136.26-.335.26-.597 0-.305-.065-.55-.195-.735a1.278 1.278 0 0 0-.5-.425 2.228 2.228 0 0 0-.687-.196 5.888 5.888 0 0 0-.751-.05c-.668 0-1.224.113-1.669.336-.445.223-.686.646-.723 1.266h-1.576c.024-.522.148-.964.37-1.323.223-.36.52-.651.89-.874a4.027 4.027 0 0 1 1.27-.483 7.577 7.577 0 0 1 1.53-.147c.433 0 .863.028 1.29.082.426.054.812.166 1.158.334.346.169.625.405.835.71.21.304.315.7.315 1.19v4.337c0 .327.022.566.065.718.043.152.188.228.436.228.136 0 .297-.021.482-.065v1.078zm2.893-8.415v1.78h.037c.383-.686.853-1.192 1.41-1.52.555-.326 1.26-.478 2.113-.457v1.471c-.63 0-1.168.076-1.613.229-.445.153-.804.376-1.076.67-.272.294-.47.651-.593 1.07-.124.42-.186.902-.186 1.446v3.76h-1.576v-8.45h1.484zm12.044 2.998a2.966 2.966 0 0 0-.538-1.005 2.573 2.573 0 0 0-.927-.702c-.377-.175-.82-.262-1.326-.262-.532 0-.983.093-1.354.278a2.62 2.62 0 0 0-.908.727c-.235.3-.406.64-.51 1.021a4.35 4.35 0 0 0 .009 2.362c.111.387.287.727.528 1.021.241.294.554.531.937.71.383.18.846.27 1.39.27.545 0 .999-.092 1.364-.277a2.43 2.43 0 0 0 .88-.736c.223-.305.383-.653.483-1.046.098-.392.148-.795.148-1.209a3.84 3.84 0 0 0-.176-1.152zM42.647 9.99v4.363h.037c.26-.468.667-.809 1.224-1.02a5.105 5.105 0 0 1 1.835-.32c.742 0 1.388.12 1.938.36s1.008.564 1.373.972c.364.409.64.88.825 1.414.185.534.278 1.1.278 1.7a5.31 5.31 0 0 1-.269 1.699c-.18.534-.451 1-.816 1.397a3.818 3.818 0 0 1-1.372.94c-.55.228-1.19.343-1.92.343a5.39 5.39 0 0 1-.788-.065 4.842 4.842 0 0 1-.862-.213 3.494 3.494 0 0 1-.807-.4 2.357 2.357 0 0 1-.64-.63h-.036v1.128H41.07V9.99h1.577zm10.746 8.817c.154.397.367.73.64.996.271.268.59.472.954.613a3.17 3.17 0 0 0 1.16.213c.407 0 .794-.071 1.158-.213.365-.141.683-.345.955-.613a2.79 2.79 0 0 0 .64-.996 3.75 3.75 0 0 0 .232-1.365c0-.512-.078-.967-.232-1.365a2.735 2.735 0 0 0-1.595-1.626 3.18 3.18 0 0 0-1.159-.212c-.408 0-.794.071-1.159.212a2.731 2.731 0 0 0-.955.621 2.875 2.875 0 0 0-.64 1.005 3.746 3.746 0 0 0-.231 1.365c0 .512.077.967.232 1.365m-1.605-3.105c.198-.54.495-1.008.89-1.406a4.206 4.206 0 0 1 1.466-.94c.58-.228 1.248-.343 2.002-.343.767 0 1.437.115 2.012.344.575.228 1.06.542 1.456.94.396.397.692.865.89 1.405.198.539.297 1.119.297 1.74 0 .62-.1 1.198-.297 1.732-.198.534-.494 1-.89 1.398-.396.397-.88.708-1.456.93-.575.224-1.245.336-2.012.336-.754 0-1.421-.112-2.002-.335a4.115 4.115 0 0 1-1.465-.931 3.852 3.852 0 0 1-.89-1.398 4.947 4.947 0 0 1-.297-1.732c0-.621.099-1.201.296-1.74m12.351-2.492v1.34h.037c.655-1.024 1.693-1.537 3.115-1.537.63 0 1.156.077 1.576.23.42.152.76.364 1.02.636.26.273.442.597.547.973.105.376.158.792.158 1.25v5.556h-1.576v-5.72c0-.522-.174-.936-.52-1.241-.346-.305-.822-.458-1.427-.458-.483 0-.9.065-1.252.196-.352.13-.646.316-.881.556a2.33 2.33 0 0 0-.528.841 3.046 3.046 0 0 0-.177 1.054v4.772h-1.576V13.21h1.484zm12.831-1.913V9.99h10.59v1.307h-4.414v10.361h-1.762v-10.36zm11.535 1.913v1.78h.037c.383-.686.853-1.192 1.41-1.52.556-.326 1.26-.478 2.114-.457v1.471c-.63 0-1.169.076-1.614.229-.445.153-.803.376-1.075.67a2.65 2.65 0 0 0-.594 1.07c-.123.42-.185.902-.185 1.446v3.76h-1.576v-8.45h1.483zm10.681 4.085c-.198.13-.457.225-.778.285-.322.06-.659.108-1.011.146-.353.038-.708.081-1.066.13-.36.049-.68.128-.965.236a1.745 1.745 0 0 0-.695.463c-.18.2-.27.475-.27.821 0 .228.053.42.159.578.105.157.24.284.407.382.167.098.362.168.585.212.222.043.457.064.704.064.52 0 .965-.062 1.336-.187.37-.124.673-.281.908-.471.235-.19.408-.396.52-.618.11-.223.166-.431.166-.626v-1.415zm2.56 4.33c-.273.142-.65.213-1.132.213-.408 0-.732-.101-.973-.302-.242-.202-.362-.531-.362-.99a3.777 3.777 0 0 1-1.511.99 5.598 5.598 0 0 1-1.864.302 5.64 5.64 0 0 1-1.233-.13 3.049 3.049 0 0 1-1.01-.41 2.033 2.033 0 0 1-.678-.727c-.167-.3-.25-.661-.25-1.086 0-.48.093-.872.278-1.177.186-.305.43-.553.733-.743.302-.19.649-.336 1.038-.434.39-.098.788-.18 1.196-.245a16.34 16.34 0 0 1 1.233-.171 7.66 7.66 0 0 0 1.03-.164c.296-.07.53-.174.704-.31.173-.136.26-.335.26-.597 0-.305-.065-.55-.195-.735a1.28 1.28 0 0 0-.5-.425 2.23 2.23 0 0 0-.687-.196 5.888 5.888 0 0 0-.75-.05c-.668 0-1.224.113-1.67.336-.445.223-.686.646-.723 1.266h-1.576c.025-.522.148-.964.37-1.323.223-.36.52-.651.891-.874.37-.224.794-.384 1.27-.483a7.575 7.575 0 0 1 1.53-.147c.433 0 .862.028 1.289.082.426.054.813.166 1.159.334.346.169.624.405.834.71.21.304.315.7.315 1.19v4.337c0 .327.022.566.066.718.043.152.188.228.435.228.136 0 .297-.021.482-.065v1.078zm7.194-6.945c-.396-.294-.927-.441-1.594-.441-.57 0-1.046.093-1.428.278-.384.185-.69.43-.918.735a2.903 2.903 0 0 0-.492 1.054 5.096 5.096 0 0 0-.148 1.234c0 .392.052.774.158 1.144.104.37.268.7.491.989.223.288.513.52.871.694.36.175.785.262 1.28.262.779 0 1.388-.18 1.827-.54.438-.36.707-.866.806-1.52h1.614c-.174 1.046-.616 1.853-1.326 2.42-.711.566-1.678.849-2.903.849-.729 0-1.375-.104-1.937-.31a3.777 3.777 0 0 1-1.41-.883 3.71 3.71 0 0 1-.853-1.365 5.07 5.07 0 0 1-.287-1.74c0-.632.093-1.223.278-1.773a3.96 3.96 0 0 1 .844-1.438c.377-.409.85-.73 1.419-.964.568-.234 1.23-.352 1.984-.352a6.56 6.56 0 0 1 1.53.172c.475.114.896.292 1.26.531.365.24.665.542.9.907s.383.798.445 1.3h-1.632c-.123-.534-.383-.949-.779-1.243m5.897-4.69v6.913l4.376-3.693h2.115l-3.802 3.072 4.08 5.376h-2.003l-3.283-4.412-1.483 1.209v3.203h-1.576V9.99zm14.363 5.703a2.39 2.39 0 0 0-.575-.76 2.787 2.787 0 0 0-.854-.506 3.02 3.02 0 0 0-1.084-.188 3.08 3.08 0 0 0-1.104.188 2.58 2.58 0 0 0-.844.515c-.234.218-.42.471-.556.76a2.605 2.605 0 0 0-.241.923h5.508a2.58 2.58 0 0 0-.25-.932m.38 5.426c-.718.48-1.62.719-2.708.719-.767 0-1.431-.11-1.994-.327a3.936 3.936 0 0 1-1.418-.915 3.766 3.766 0 0 1-.862-1.405 6.018 6.018 0 0 1-.325-1.782c0-.642.112-1.23.334-1.765a4.17 4.17 0 0 1 .937-1.389 4.269 4.269 0 0 1 1.427-.915 4.87 4.87 0 0 1 1.808-.327c.853 0 1.56.156 2.124.466.562.31 1.013.706 1.353 1.185.34.48.575 1.002.705 1.569.13.566.182 1.106.158 1.618h-7.177c-.012.37.037.721.148 1.054.112.332.29.626.538.882.247.256.563.46.946.613.383.153.834.229 1.354.229.667 0 1.214-.137 1.64-.41.427-.271.708-.685.844-1.241h1.558c-.21.948-.674 1.662-1.39 2.14m4.598-7.908v1.78h.037c.383-.686.853-1.192 1.41-1.52.556-.326 1.26-.478 2.113-.457v1.471c-.63 0-1.168.076-1.613.229-.445.153-.804.376-1.076.67a2.65 2.65 0 0 0-.593 1.07c-.124.42-.185.902-.185 1.446v3.76h-1.576v-8.45h1.483z"/><path d="M26.98 8.075l-.519-.49c-.352-.303-.867-.753-1.592-1.23a13.497 13.497 0 0 0-2.79-1.4 13.694 13.694 0 0 0-3.97-.804 13.738 13.738 0 0 0-4.747.611 13.406 13.406 0 0 0-4.66 2.572 13.541 13.541 0 0 0-3.47 4.502 13.522 13.522 0 0 0-1.284 5.713 13.52 13.52 0 0 0 1.274 5.714 13.544 13.544 0 0 0 3.462 4.508 13.403 13.403 0 0 0 4.655 2.58 13.73 13.73 0 0 0 4.747.62 13.703 13.703 0 0 0 3.97-.797 13.51 13.51 0 0 0 2.793-1.394c.726-.477 1.241-.926 1.595-1.228l.52-.49 2.789 2.782-.67.63c-.453.392-1.121.97-2.06 1.586a17.44 17.44 0 0 1-3.616 1.807c-1.469.537-3.21.93-5.132 1.03a17.693 17.693 0 0 1-6.131-.8 17.48 17.48 0 0 1-10.496-9.165A17.443 17.443 0 0 1 0 17.545a17.439 17.439 0 0 1 1.661-7.384 17.478 17.478 0 0 1 10.512-9.146 17.709 17.709 0 0 1 6.132-.789c1.923.103 3.663.498 5.13 1.038a17.48 17.48 0 0 1 3.613 1.813c.938.619 1.605 1.198 2.059 1.59l.667.631-2.794 2.777"/><path d="M22.877 11.965l-.311-.28-.17-.155c-.061-.057-.127-.121-.21-.176l-.547-.404c-.221-.127-.46-.278-.728-.425l-.434-.201c-.075-.035-.15-.073-.23-.107a140.94 140.94 0 0 0-.247-.085c-.66-.261-1.454-.424-2.325-.471a7.826 7.826 0 0 0-5.513 1.871 7.932 7.932 0 0 0-2.029 2.656 8.074 8.074 0 0 0-.762 3.365 8.08 8.08 0 0 0 .756 3.367 7.93 7.93 0 0 0 4.753 4.182 7.93 7.93 0 0 0 2.78.359c.872-.046 1.667-.208 2.327-.467l.248-.086c.079-.033.154-.071.23-.106l.434-.2c.269-.147.507-.298.728-.424.206-.15.389-.286.548-.403.083-.055.149-.119.21-.176l.17-.153.312-.28 1.67 1.674-.402.365-.22.198c-.081.073-.168.155-.274.228l-.713.523c-.285.167-.596.362-.947.551l-.565.263c-.098.045-.197.093-.3.136l-.32.113c-.86.332-1.892.549-3.022.607a10.189 10.189 0 0 1-7.158-2.446 10.3 10.3 0 0 1-2.628-3.453 10.445 10.445 0 0 1-.98-4.374c.008-1.514.352-3.023.988-4.372a10.296 10.296 0 0 1 6.185-5.42 10.281 10.281 0 0 1 3.611-.462c1.13.06 2.16.279 3.02.613l.321.114c.103.043.201.09.3.135l.564.264c.35.19.662.385.947.554l.711.524c.106.073.193.155.273.228l.22.198.401.366-1.672 1.672"/><path d="M20.569 14.176l-.189-.17c-.063-.053-.132-.13-.23-.2l-.33-.244c-.134-.076-.278-.168-.44-.257l-.263-.122c-.046-.02-.091-.044-.139-.064l-.15-.052a4.534 4.534 0 0 0-1.406-.285 4.734 4.734 0 0 0-3.334 1.132c-.504.43-.934.979-1.228 1.606a4.882 4.882 0 0 0-.46 2.036 4.88 4.88 0 0 0 .457 2.036 4.793 4.793 0 0 0 2.874 2.53 4.791 4.791 0 0 0 1.683.217 4.533 4.533 0 0 0 1.407-.283l.15-.051c.047-.02.092-.044.138-.064l.263-.122c.163-.088.307-.18.44-.256l.332-.244c.098-.069.166-.146.23-.199l.189-.17 1.01 1.013-.244.221c-.081.07-.173.167-.298.258l-.432.316c-.172.102-.36.22-.573.334-.11.05-.223.104-.341.159-.06.026-.12.055-.182.081l-.194.069a5.96 5.96 0 0 1-1.827.367 6.167 6.167 0 0 1-4.33-1.48 6.224 6.224 0 0 1-1.59-2.088 6.316 6.316 0 0 1-.592-2.645 6.317 6.317 0 0 1 .597-2.645 6.232 6.232 0 0 1 3.742-3.279 6.22 6.22 0 0 1 2.184-.278 5.956 5.956 0 0 1 1.827.37l.194.069c.062.026.121.055.18.082l.342.16c.212.114.4.233.573.334.16.12.305.225.43.317.126.092.217.189.298.258l.243.222-1.011 1.01"/><path d="M19.174 15.661l-.105-.095c-.066-.067-.175-.147-.315-.25a2.696 2.696 0 0 0-3.216.198 2.712 2.712 0 0 0-.947 2.044 2.711 2.711 0 0 0 .943 2.045 2.694 2.694 0 0 0 3.216.203c.14-.102.25-.182.315-.249l.106-.095.566.569-.136.124a3.651 3.651 0 0 1-.41.321 3.498 3.498 0 0 1-2.974.409 3.491 3.491 0 0 1-2.096-1.843 3.544 3.544 0 0 1-.332-1.485 3.493 3.493 0 0 1 2.434-3.323 3.498 3.498 0 0 1 2.974.413c.182.131.323.238.409.323l.136.124-.568.567"/></g></svg>